<?xml version="1.0" encoding="UTF-8" standalone="no"?>
<!DOCTYPE svg PUBLIC "-//W3C//DTD SVG 1.1//EN" "http://www.w3.org/Graphics/SVG/1.1/DTD/svg11.dtd">
<svg version="1.1" xmlns="http://www.w3.org/2000/svg" xmlns:xlink="http://www.w3.org/1999/xlink" preserveAspectRatio="xMidYMid meet" viewBox="0 0 1200 200" width="1200" height="200"><defs><path d="M547.03 51.36L555.02 78.54L570.76 106.68L580.6 84.93L607.46 80.07L631.54 84.93L641.39 108.11L651.47 90.53L658.14 72.94L669.34 53.75L674.93 78.54L674.93 108.11L662.14 140.09L644.55 152.08L629.37 169.67L610.98 172.07L584.6 189.66L580.6 172.07L563.01 147.29L555.02 152.08L552.62 138.09L539.83 124.9L535.83 98.52L539.83 66.54L547.03 51.36Z" id="a2xsoTxbki"></path><path d="M-6.76 98.76L53.16 41.31L110.62 101.24L50.69 158.69L-6.76 98.76Z" id="d1orIB57Qu"></path><path d="M1024.49 16.5L1084.41 -40.95L1141.87 18.97L1081.94 76.43L1024.49 16.5Z" id="b2HzqSFFnU"></path><path d="M231.78 157.43L314.44 149.8L322.08 232.47L239.41 240.1L231.78 157.43Z" id="a1q78AQGLv"></path><path d="M772.56 107.52L804.94 31.08L881.38 63.46L849 139.9L772.56 107.52Z" id="c1fMmpFV1U"></path><path d="M962.04 162.14L1043.79 176.61L1029.31 258.36L947.57 243.88L962.04 162.14Z" id="b3WRsAwjyo"></path><path d="M263.39 7.14L323.31 -50.31L380.77 9.61L320.84 67.07L263.39 7.14Z" id="b2z5M82YRW"></path></defs><g><g><g><use xlink:href="#a2xsoTxbki" opacity="0.8" fill="#000000" fill-opacity="1"></use></g><g><g><use xlink:href="#d1orIB57Qu" opacity="1" fill-opacity="0" stroke="#000000" stroke-width="1" stroke-opacity="0.6"></use></g></g><g><g><use xlink:href="#b2HzqSFFnU" opacity="1" fill-opacity="0" stroke="#000000" stroke-width="1" stroke-opacity="0.6"></use></g></g><g><g><use xlink:href="#a1q78AQGLv" opacity="1" fill-opacity="0" stroke="#000000" stroke-width="1" stroke-opacity="0.6"></use></g></g><g><g><use xlink:href="#c1fMmpFV1U" opacity="1" fill-opacity="0" stroke="#000000" stroke-width="1" stroke-opacity="0.6"></use></g></g><g><g><use xlink:href="#b3WRsAwjyo" opacity="1" fill-opacity="0" stroke="#000000" stroke-width="1" stroke-opacity="0.6"></use></g></g><g><g><use xlink:href="#b2z5M82YRW" opacity="1" fill-opacity="0" stroke="#000000" stroke-width="1" stroke-opacity="0.6"></use></g></g></g></g></svg>